<svg width="172" height="60" viewBox="0 0 172 60" fill="none" xmlns="http://www.w3.org/2000/svg">
<path d="M0.189453 5.49019C0.189453 2.45804 2.6475 0 5.67964 0H40.1894C43.2216 0 45.6796 2.45804 45.6796 5.49019V50.9804C45.6796 54.0125 43.2216 56.4705 40.1894 56.4705H5.67964C2.64749 56.4705 0.189453 54.0125 0.189453 50.9804V5.49019Z" fill="#33226E"/>
<path d="M4.11108 6.27445C4.11108 4.97496 5.16453 3.92151 6.46402 3.92151H38.6209C40.7867 3.92151 42.5424 5.67725 42.5424 7.84307V40.7842C42.5424 42.0837 41.489 43.1372 40.1895 43.1372H4.11108V6.27445Z" fill="#54C0F7"/>
<path d="M4.11108 49.4117C4.11108 48.1122 5.16453 47.0587 6.46402 47.0587H42.5424V50.196C42.5424 51.4955 41.489 52.5489 40.1895 52.5489H6.46402C5.16453 52.5489 4.11108 51.4955 4.11108 50.196V49.4117Z" fill="#FEFEFE"/>
<path d="M15.8756 47.0587H8.03247V58.8234L11.954 54.9018L15.8756 58.8234V47.0587Z" fill="#FF787D"/>
<path fill-rule="evenodd" clip-rule="evenodd" d="M6.8562 47.0588C6.8562 46.409 7.38292 45.8823 8.03267 45.8823H15.8758C16.5255 45.8823 17.0523 46.409 17.0523 47.0588V58.8235C17.0523 59.2993 16.7656 59.7283 16.326 59.9104C15.8864 60.0925 15.3804 59.9918 15.0439 59.6554L11.9542 56.5657L8.86456 59.6554C8.52809 59.9918 8.02207 60.0925 7.58246 59.9104C7.14284 59.7283 6.8562 59.2993 6.8562 58.8235V47.0588ZM9.20914 48.2353V55.9832L11.1223 54.07C11.5818 53.6106 12.3267 53.6106 12.7861 54.07L14.6993 55.9832V48.2353H9.20914Z" fill="#33226E"/>
<path fill-rule="evenodd" clip-rule="evenodd" d="M28.6315 15.6173C28.3377 13.0165 26.2413 11 23.6989 11C21.2155 11 19.1577 12.924 18.7897 15.4373C17.8785 14.2799 16.5046 13.543 14.9677 13.543C12.2241 13.543 10 15.8913 10 18.7881C10 21.6466 12.1659 23.9711 14.8595 24.0319L13.6129 35H29.4194L30.6909 23.5144C31.355 23.847 32.0978 24.0331 32.8817 24.0331C35.7085 24.0331 38 21.6137 38 18.6291C38 15.6446 35.7085 13.2252 32.8817 13.2252C31.1111 13.2252 29.5504 14.1745 28.6315 15.6173Z" fill="#FEFEFE"/>
<path fill-rule="evenodd" clip-rule="evenodd" d="M23.2176 10.9741C20.9448 10.9741 18.922 12.0355 17.6369 13.6848C16.8296 13.3671 15.9487 13.1923 15.028 13.1923C11.1583 13.1923 8 16.2754 8 20.1047C8 22.9853 9.7889 25.4446 12.3201 26.4851L11.4059 33.9653C11.3242 34.6334 11.5383 35.3017 11.9896 35.8012C12.4405 36.3001 13.0843 36.5828 13.7571 36.5828H28.5832C29.7744 36.5828 30.7941 35.7052 30.9354 34.5181L31.8283 27.0171H31.8309C35.7785 27.0171 39 23.8719 39 19.966C39 16.0602 35.7785 12.915 31.8309 12.915C30.7232 12.915 29.6728 13.1628 28.7352 13.6049C27.4475 12.0013 25.4533 10.9741 23.2176 10.9741ZM19.8357 15.8211C20.5391 14.7205 21.7886 13.9856 23.2176 13.9856C24.6622 13.9856 25.9233 14.7367 26.6223 15.8572C26.9132 16.3235 27.1063 16.8533 27.1752 17.4203C27.209 17.6987 27.4117 17.927 27.6841 17.9936C27.9565 18.0602 28.2417 17.9512 28.4002 17.7198C28.7201 17.2528 29.1374 16.8539 29.6242 16.5517C30.2614 16.1561 31.0174 15.9264 31.8309 15.9264C34.1217 15.9264 35.9578 17.7465 35.9578 19.966C35.9578 22.0862 34.2824 23.8419 32.1357 23.9949L32.2109 23.1533C32.2861 22.3123 31.6535 21.5917 30.8277 21.5205C30.0034 21.4494 29.2555 22.0485 29.1805 22.8878L28.9579 25.3775L29.1817 25.3975L28.9579 25.3775C28.9564 25.3942 28.9552 25.411 28.9543 25.4277L27.9848 33.5714H26.0023L26.5287 28.1594C26.5703 27.7321 26.3588 27.3848 26.1087 27.1689C25.8576 26.9522 25.5299 26.8257 25.1901 26.797C24.8501 26.7683 24.5066 26.838 24.2229 27.0061C23.9419 27.1727 23.6703 27.4725 23.629 27.8972L23.0771 33.5714H20.3719L20.8264 28.9918C20.8703 28.5494 20.6267 28.2114 20.3821 28.018C20.132 27.8203 19.8125 27.7076 19.4865 27.6803C19.1602 27.653 18.8273 27.7114 18.5482 27.8612C18.2773 28.0066 17.9769 28.2909 17.9334 28.729L17.4528 33.5714H14.5184L15.5954 24.7603C15.6185 24.5712 15.5605 24.3811 15.4357 24.2372C15.3109 24.0932 15.131 24.0088 14.9406 24.0048C14.6718 23.9991 14.4101 23.9675 14.158 23.9126C12.3669 23.5226 11.0422 21.958 11.0422 20.1047C11.0422 17.9617 12.8151 16.2037 15.028 16.2037C15.685 16.2037 16.3028 16.3588 16.8471 16.6326C17.3299 16.8756 17.7554 17.2122 18.0986 17.6175C18.2689 17.8186 18.5409 17.902 18.7947 17.8309C19.0485 17.7598 19.2376 17.5472 19.2786 17.2868C19.3622 16.7558 19.5554 16.2597 19.8357 15.8211Z" fill="#33226E"/>
<path d="M74 2.96588L73.7355 17.874L75.9577 18.084C75.9577 18.5739 75.8078 19.0989 75.5079 19.6588H69.4233L69.3439 18.7402C70.1552 18.4602 70.9577 18.2502 71.7513 18.1102C71.7161 16.9729 71.6543 14.6282 71.5661 11.0761C71.4956 7.52406 71.4339 4.7769 71.381 2.83464C70.6755 2.69466 69.8818 2.48469 69 2.20472L69.0794 1.28609H75.6931C75.993 1.84602 76.1429 2.37095 76.1429 2.86089C75.2434 2.93088 74.5291 2.96588 74 2.96588Z" fill="#33226E"/>
<path d="M86.0075 6.0105C87.7006 6.0105 88.9264 6.43045 89.6848 7.27034C90.4431 8.09274 90.8223 9.35258 90.8223 11.0499C90.8223 11.5398 90.7518 13.8145 90.6107 17.874L92.8329 18.084C92.8329 18.5739 92.683 19.0989 92.3832 19.6588H86.2985L86.2191 18.7402C87.0304 18.4602 87.8241 18.2502 88.6001 18.1102C88.4943 13.5258 88.3973 10.9799 88.3091 10.4724C88.2386 9.94751 88.1151 9.49256 87.9387 9.10761C87.7624 8.72266 87.4978 8.45144 87.1451 8.29396C86.7923 8.13648 86.325 8.05774 85.743 8.05774C84.5789 8.05774 83.4502 8.33771 82.3567 8.89764C82.2509 12.8871 82.1803 15.8793 82.1451 17.874L84.3673 18.084C84.3673 18.5739 84.2174 19.0989 83.9176 19.6588H77.8329L77.7535 18.7402C78.5648 18.4602 79.3585 18.2502 80.1345 18.1102C80.0287 13.6658 79.9405 10.3762 79.8699 8.24147C78.8999 8.18898 78.1239 8.08399 77.5419 7.92651L77.6477 6.56168C78.6001 6.29921 79.9846 6.16798 81.8012 6.16798C82.0128 6.48294 82.1715 6.93788 82.2773 7.53281C83.0357 7.13036 83.7941 6.7804 84.5525 6.48294C85.3285 6.16798 85.8135 6.0105 86.0075 6.0105Z" fill="#33226E"/>
<path d="M95.2195 18.0315L95.0078 8.13648H92.9708L92.8914 7.21785C93.0678 7.09536 93.5792 6.86789 94.4258 6.53543L96.5951 3.17585C96.9479 3.21085 97.2212 3.29834 97.4152 3.43832L97.3888 6.32546C98.7115 6.32546 99.7962 6.41295 100.643 6.58793C100.643 7.06037 100.493 7.57655 100.193 8.13648H97.3359C97.3006 10.2362 97.2653 13.4208 97.23 17.6903C98.2177 17.7428 99.2054 17.9178 100.193 18.2152L100.167 19.1339C99.9196 19.2913 99.2847 19.4751 98.2618 19.685C97.2565 19.895 96.4276 20 95.775 20C95.6868 19.86 95.5722 19.5626 95.4311 19.1076C95.29 18.6352 95.2195 18.2765 95.2195 18.0315Z" fill="#33226E"/>
<path d="M108.385 18.189C109.161 18.189 110.378 17.8215 112.036 17.0866C112.371 17.5416 112.547 17.944 112.565 18.294C111.665 18.8189 110.784 19.2301 109.919 19.5276C109.055 19.825 108.438 19.9738 108.068 19.9738C106.022 19.9738 104.461 19.3701 103.385 18.1627C102.309 16.9379 101.771 15.2318 101.771 13.0446C101.771 10.8574 102.292 9.14261 103.332 7.90026C104.39 6.64042 105.969 6.0105 108.068 6.0105C109.69 6.0105 110.925 6.58793 111.771 7.74278C112.635 8.89764 113.068 10.4462 113.068 12.3885C112.926 12.6334 112.812 12.7996 112.724 12.8871L104.205 12.7559C104.223 14.5232 104.531 15.8705 105.131 16.7979C105.748 17.7253 106.833 18.189 108.385 18.189ZM110.66 11.2598C110.66 10.105 110.448 9.2126 110.025 8.58268C109.602 7.93526 108.896 7.61155 107.909 7.61155C106.921 7.61155 106.039 7.79527 105.263 8.16273C104.734 9.2126 104.399 10.2887 104.258 11.3911C105.651 11.3736 107.785 11.3298 110.66 11.2598Z" fill="#33226E"/>
<path d="M122.531 8.21522C122.443 8.12773 122.249 8.08399 121.949 8.08399C121.649 8.08399 121.199 8.18898 120.6 8.39895C120.018 8.60892 119.489 8.85389 119.012 9.13386C118.907 13.0184 118.836 15.9318 118.801 17.874L121.023 18.084C121.023 18.5739 120.873 19.0989 120.573 19.6588H114.489L114.409 18.7402C115.221 18.4602 116.014 18.2502 116.79 18.1102C116.684 13.6658 116.596 10.3762 116.526 8.24147C115.556 8.18898 114.78 8.08399 114.198 7.92651L114.303 6.56168C115.238 6.29921 116.623 6.16798 118.457 6.16798C118.739 6.60542 118.915 7.16535 118.986 7.84777C121.014 6.62292 122.222 6.0105 122.61 6.0105C122.998 6.0105 123.448 6.08924 123.96 6.24672C124.471 6.3867 124.85 6.54418 125.097 6.71916C125.097 8.46894 124.93 9.89501 124.595 10.9974C124.348 11.0674 124.057 11.1024 123.721 11.1024C123.404 11.1024 123.184 11.0936 123.06 11.0761L122.531 8.21522Z" fill="#33226E"/>
<path d="M134.336 4.25197L133.912 4.22572H133.807L132.987 1.65354C132.599 1.58355 132.255 1.54856 131.955 1.54856C131.091 1.54856 130.482 1.88101 130.129 2.54593C129.794 3.21085 129.627 4.37445 129.627 6.03674V6.35171H130.024C131.241 6.35171 132.175 6.4217 132.828 6.56168C132.845 6.56168 132.881 6.57043 132.934 6.58793C132.916 7.09536 132.766 7.61155 132.484 8.13648H129.468V17.874H129.865C130.553 17.874 131.161 17.909 131.69 17.979C132.219 18.049 132.502 18.1015 132.537 18.1365C132.537 18.5914 132.387 19.0989 132.087 19.6588H125.156L125.076 18.7402C125.888 18.4602 126.629 18.2502 127.299 18.1102V8.13648H125.262L125.182 7.21785C125.817 6.97288 126.523 6.7804 127.299 6.64042V5.5643C127.299 3.58705 127.669 2.14348 128.41 1.2336C128.71 0.883639 129.133 0.594925 129.68 0.367454C130.226 0.122485 130.861 0 131.584 0C132.995 0 134.336 0.306211 135.606 0.918634C135.606 2.0035 135.5 3.08836 135.288 4.17323C135.094 4.22572 134.777 4.25197 134.336 4.25197Z" fill="#33226E"/>
<path d="M145.081 11.0761L144.949 17.8478C145.707 17.9003 146.465 18.0227 147.224 18.2152L147.171 19.1339C146.889 19.2738 146.377 19.4313 145.636 19.6063C144.913 19.7638 144.199 19.8425 143.494 19.8425C143.176 19.2126 143 18.6089 142.964 18.0315C140.954 19.3438 139.543 20 138.732 20C137.479 20 136.474 19.6675 135.716 19.0026C134.957 18.3377 134.578 17.4103 134.578 16.2205C134.578 13.4733 136.271 12.056 139.658 11.9685C141.633 11.916 142.629 11.8898 142.647 11.8898L142.621 10.9974C142.585 9.79002 142.356 8.92388 141.933 8.39895C141.509 7.85652 140.751 7.5853 139.658 7.5853C139.199 7.5853 138.705 7.69029 138.176 7.90026L137.541 10.5249C137.453 10.5424 137.303 10.5512 137.091 10.5512L136.007 10.4724C135.725 9.72003 135.575 8.67891 135.557 7.34908C135.892 7.1741 136.659 6.91164 137.859 6.56168C139.058 6.19422 139.825 6.0105 140.16 6.0105C141.959 6.0105 143.229 6.4042 143.97 7.1916C144.71 7.979 145.081 9.27384 145.081 11.0761ZM139.314 18.2152C139.825 18.2152 141.007 17.6465 142.859 16.5092L142.726 13.2283C141.527 13.3333 140.522 13.4296 139.71 13.5171C138.899 13.6045 138.247 13.8408 137.753 14.2257C137.259 14.5932 137.012 15.1794 137.012 15.9843C137.012 17.4716 137.779 18.2152 139.314 18.2152Z" fill="#33226E"/>
<path d="M154.21 19.9738C152.093 19.9738 150.515 19.3876 149.474 18.2152C148.433 17.0254 147.913 15.3368 147.913 13.1496C147.913 8.3902 150.047 6.0105 154.315 6.0105C155.003 6.0105 155.717 6.11548 156.458 6.32546C157.199 6.51793 157.781 6.73666 158.204 6.98163C158.151 8.60892 157.984 9.76378 157.702 10.4462C157.384 10.5337 157.128 10.5774 156.934 10.5774H156.485C156.396 10.5774 156.291 10.5687 156.167 10.5512L155.506 7.66404C154.924 7.61155 154.589 7.5853 154.501 7.5853C153.231 7.5853 152.217 7.97025 151.458 8.74016C150.717 9.51006 150.347 10.8049 150.347 12.6247C150.347 14.4444 150.629 15.8268 151.194 16.7717C151.776 17.7165 152.887 18.189 154.527 18.189C155.303 18.189 156.52 17.8215 158.178 17.0866C158.513 17.5416 158.689 17.944 158.707 18.294C157.807 18.8189 156.926 19.2301 156.061 19.5276C155.197 19.825 154.58 19.9738 154.21 19.9738Z" fill="#33226E"/>
<path d="M166.317 18.189C167.093 18.189 168.31 17.8215 169.968 17.0866C170.303 17.5416 170.48 17.944 170.497 18.294C169.598 18.8189 168.716 19.2301 167.852 19.5276C166.988 19.825 166.37 19.9738 166 19.9738C163.954 19.9738 162.393 19.3701 161.317 18.1627C160.242 16.9379 159.704 15.2318 159.704 13.0446C159.704 10.8574 160.224 9.14261 161.265 7.90026C162.323 6.64042 163.901 6.0105 166 6.0105C167.623 6.0105 168.857 6.58793 169.704 7.74278C170.568 8.89764 171 10.4462 171 12.3885C170.859 12.6334 170.744 12.7996 170.656 12.8871L162.138 12.7559C162.155 14.5232 162.464 15.8705 163.063 16.7979C163.681 17.7253 164.765 18.189 166.317 18.189ZM168.593 11.2598C168.593 10.105 168.381 9.2126 167.958 8.58268C167.534 7.93526 166.829 7.61155 165.841 7.61155C164.854 7.61155 163.972 7.79527 163.196 8.16273C162.667 9.2126 162.332 10.2887 162.19 11.3911C163.584 11.3736 165.718 11.3298 168.593 11.2598Z" fill="#33226E"/>
<path d="M77.3453 25.1499C81.689 25.1499 84.5683 25.7744 85.9832 27.0236C87.2739 28.1478 87.9192 29.884 87.9192 32.2323C87.9192 35.8797 86.0328 38.3655 82.2599 39.6895L87.6214 47.8212L90.8233 48.1585C90.8233 49.2327 90.5379 50.3069 89.967 51.3812H84.5683L77.2708 40.1767H76.0794L75.9677 47.8212L78.6856 48.121C78.6856 49.1453 78.4002 50.232 77.8293 51.3812H68.6329L68.2979 49.3201C69.7871 48.7206 70.8296 48.3583 71.4254 48.2334C71.3757 45.1606 71.3137 41.4507 71.2392 37.1039C71.1647 32.757 71.1151 29.8465 71.0903 28.3726L68 27.4358C68.0248 26.8612 68.1365 26.0992 68.3351 25.1499H77.3453ZM80.2866 29.1595C79.5172 28.9847 78.4871 28.8972 77.1964 28.8972H76.1539C76.1042 32.3448 76.0794 34.9304 76.0794 36.6542L77.9038 36.6167C79.3682 36.5917 80.5224 36.2919 81.3664 35.7173C82.2351 35.1178 82.6695 33.9686 82.6695 32.2698C82.6695 30.571 81.8752 29.5343 80.2866 29.1595Z" fill="#33226E"/>
<path d="M101.258 48.1585C102.102 48.1585 103.814 47.5714 106.396 46.3972C106.942 47.1966 107.351 48.121 107.624 49.1702C106.259 50.0196 104.919 50.6817 103.603 51.1563C102.313 51.606 101.394 51.8308 100.848 51.8308C97.8447 51.8308 95.5611 50.9939 93.9974 49.3201C92.4585 47.6463 91.689 45.273 91.689 42.2002C91.689 39.1024 92.4585 36.6167 93.9974 34.743C95.5363 32.8444 97.8199 31.8951 100.848 31.8951C103.256 31.8951 105.093 32.682 106.358 34.2559C107.624 35.8298 108.257 37.8783 108.257 40.4015C108.257 40.9261 107.959 41.5257 107.364 42.2002L96.6409 42.0128C96.6905 44.0114 97.0628 45.5353 97.7578 46.5846C98.4528 47.6338 99.6194 48.1585 101.258 48.1585ZM100.513 35.0054C99.5698 35.0054 98.6886 35.1927 97.8695 35.5675C97.2986 36.7666 96.9387 37.8783 96.7898 38.9026C98.7259 38.8276 100.923 38.7777 103.38 38.7527C103.256 36.2545 102.3 35.0054 100.513 35.0054Z" fill="#33226E"/>
<path d="M119.565 35.0054L118.97 34.9679C117.58 34.9679 116.463 35.455 115.619 36.4293C114.8 37.3787 114.39 38.99 114.39 41.2634C114.39 43.5118 114.7 45.2231 115.321 46.3972C115.966 47.5714 117.195 48.1585 119.007 48.1585C119.851 48.1585 121.638 47.5839 124.368 46.4347C124.989 47.3091 125.324 48.2209 125.374 49.1702C124.008 50.0196 122.668 50.6817 121.353 51.1563C120.062 51.631 119.143 51.8683 118.597 51.8683C115.544 51.8683 113.261 51.0314 111.747 49.3576C110.233 47.6588 109.476 45.2855 109.476 42.2377C109.476 35.3426 112.566 31.8951 118.746 31.8951C119.814 31.8951 120.906 32.0325 122.023 32.3073C123.165 32.5571 124.058 32.8819 124.703 33.2816C124.629 35.7798 124.356 37.591 123.884 38.7152C123.065 38.9151 121.911 39.015 120.422 39.015L119.565 35.0054Z" fill="#33226E"/>
<path d="M133.478 32.1949C133.95 32.1949 134.248 32.2074 134.372 32.2323C134.372 33.4565 134.161 34.5931 133.739 35.6424C133.64 41.0385 133.578 45.0857 133.553 47.7837L136.457 48.121C136.457 49.1453 136.171 50.232 135.601 51.3812H126.33L125.995 49.3201C127.534 48.7455 128.651 48.3708 129.346 48.1959L128.936 36.0546C127.472 35.9047 126.392 35.7173 125.697 35.4925C125.697 34.868 125.784 33.9686 125.957 32.7944C127.422 32.3947 129.929 32.1949 133.478 32.1949ZM133.478 25.1124C133.702 26.2366 133.813 27.0985 133.813 27.6981C133.813 28.2727 133.764 28.9222 133.665 29.6467C132.672 29.8715 131.828 29.9839 131.133 29.9839C130.463 29.9839 129.643 29.9465 128.675 29.8715C128.452 28.7473 128.34 27.8979 128.34 27.3233C128.34 26.7238 128.39 26.0617 128.489 25.3373C129.482 25.1124 130.314 25 130.984 25C131.679 25 132.51 25.0375 133.478 25.1124Z" fill="#33226E"/>
<path d="M147.947 51.8308C146.508 51.8308 144.994 51.3562 143.405 50.4069C143.355 53.055 143.331 55.0535 143.331 56.4026L146.235 56.7398C146.235 57.839 145.949 58.9258 145.378 60H136.108L135.772 57.939C137.361 57.3394 138.478 56.9647 139.123 56.8148L138.416 36.0171C137.249 35.9172 136.269 35.7298 135.475 35.455C135.475 34.5307 135.562 33.6313 135.735 32.757C136.778 32.5321 139.086 32.3323 142.66 32.1574C142.859 32.4822 143.082 33.0318 143.331 33.8062C145.912 32.5321 147.612 31.8951 148.431 31.8951C150.889 31.8951 152.713 32.7695 153.905 34.5182C155.096 36.242 155.692 38.5653 155.692 41.4882C155.692 44.4111 155.022 46.8719 153.681 48.8705C152.366 50.844 150.454 51.8308 147.947 51.8308ZM143.628 37.1039L143.48 46.5846C144.05 47.1092 144.721 47.5714 145.49 47.9711C146.284 48.3458 146.955 48.5332 147.501 48.5332C149.685 48.5332 150.777 46.4222 150.777 42.2002C150.777 40.6263 150.616 39.3647 150.293 38.4154C149.995 37.4661 149.635 36.8041 149.213 36.4293C148.816 36.0296 148.345 35.8298 147.798 35.8298C146.706 35.8298 145.316 36.2545 143.628 37.1039Z" fill="#33226E"/>
<path d="M165 48.1585C165.844 48.1585 167.557 47.5714 170.138 46.3972C170.684 47.1966 171.094 48.121 171.367 49.1702C170.002 50.0196 168.662 50.6817 167.346 51.1563C166.055 51.606 165.137 51.8308 164.591 51.8308C161.587 51.8308 159.304 50.9939 157.74 49.3201C156.201 47.6463 155.432 45.273 155.432 42.2002C155.432 39.1024 156.201 36.6167 157.74 34.743C159.279 32.8444 161.563 31.8951 164.591 31.8951C166.998 31.8951 168.835 32.682 170.101 34.2559C171.367 35.8298 172 37.8783 172 40.4015C172 40.9261 171.702 41.5257 171.106 42.2002L160.384 42.0128C160.433 44.0114 160.806 45.5353 161.501 46.5846C162.196 47.6338 163.362 48.1585 165 48.1585ZM164.256 35.0054C163.312 35.0054 162.431 35.1927 161.612 35.5675C161.041 36.7666 160.681 37.8783 160.532 38.9026C162.469 38.8276 164.665 38.7777 167.123 38.7527C166.998 36.2545 166.043 35.0054 164.256 35.0054Z" fill="#33226E"/>
</svg>
